<svg xmlns="http://www.w3.org/2000/svg" xmlns:xlink="http://www.w3.org/1999/xlink" width="500" zoomAndPan="magnify" viewBox="0 0 375 374.999991" height="500" preserveAspectRatio="xMidYMid meet" version="1.0"><defs><clipPath id="b761d163d0"><path d="M 49.058594 219.46875 L 325.738281 219.46875 L 325.738281 331 L 49.058594 331 Z M 49.058594 219.46875 " clip-rule="nonzero"/></clipPath><clipPath id="d9d9b9b12c"><path d="M 49.058594 245 L 325.738281 245 L 325.738281 348.507812 L 49.058594 348.507812 Z M 49.058594 245 " clip-rule="nonzero"/></clipPath><clipPath id="a074c741db"><path d="M 49.058594 123 L 325.738281 123 L 325.738281 234.105469 L 49.058594 234.105469 Z M 49.058594 123 " clip-rule="nonzero"/></clipPath><clipPath id="4772cd4b5e"><path d="M 49.058594 148.726562 L 325.738281 148.726562 L 325.738281 253 L 49.058594 253 Z M 49.058594 148.726562 " clip-rule="nonzero"/></clipPath><clipPath id="58aa25ea49"><path d="M 49.058594 26.757812 L 325.738281 26.757812 L 325.738281 138 L 49.058594 138 Z M 49.058594 26.757812 " clip-rule="nonzero"/></clipPath><clipPath id="bf68054456"><path d="M 49.058594 52 L 325.738281 52 L 325.738281 156 L 49.058594 156 Z M 49.058594 52 " clip-rule="nonzero"/></clipPath></defs><g clip-path="url(#b761d163d0)"><path fill="#f4f6fc" d="M 325.738281 245.242188 L 176.738281 304.929688 L 112.929688 330.496094 L 49.058594 304.929688 L 261.863281 219.6875 L 325.738281 245.242188 " fill-opacity="1" fill-rule="nonzero"/></g><g clip-path="url(#d9d9b9b12c)"><path fill="#00b16a" d="M 112.902344 330.496094 L 49.058594 304.921875 L 49.058594 323.007812 L 112.902344 348.582031 L 325.746094 263.320312 L 325.746094 245.234375 L 112.902344 330.496094 " fill-opacity="1" fill-rule="nonzero"/></g><g clip-path="url(#a074c741db)"><path fill="#f4f6fc" d="M 325.738281 148.785156 L 176.738281 208.472656 L 112.929688 234.039062 L 49.058594 208.472656 L 261.863281 123.226562 L 325.738281 148.785156 " fill-opacity="1" fill-rule="nonzero"/></g><g clip-path="url(#4772cd4b5e)"><path fill="#00b16a" d="M 112.902344 234.039062 L 49.058594 208.460938 L 49.058594 226.546875 L 112.902344 252.121094 L 325.746094 166.859375 L 325.746094 148.773438 L 112.902344 234.039062 " fill-opacity="1" fill-rule="nonzero"/></g><g clip-path="url(#58aa25ea49)"><path fill="#f4f6fc" d="M 325.738281 52.324219 L 176.738281 112.011719 L 112.929688 137.570312 L 49.058594 112.011719 L 261.863281 26.769531 L 325.738281 52.324219 " fill-opacity="1" fill-rule="nonzero"/></g><g clip-path="url(#bf68054456)"><path fill="#00b16a" d="M 112.902344 137.570312 L 49.058594 111.992188 L 49.058594 130.089844 L 112.902344 155.664062 L 325.746094 70.402344 L 325.746094 52.316406 L 112.902344 137.570312 " fill-opacity="1" fill-rule="nonzero"/></g></svg>